REM DIRINDEX 1\2,1\3,1\4,1\5,1\6
REM DIRNAME cjc030,folder01,folder02,folder03,folder04,folder05
TITLE ""
FILE "Disc3Track34.mp3" MP3
  TRACK 01 AUDIO
    TITLE "3:cjc030_05030"
    INDEX 01 00:00:00
  TRACK 02 AUDIO
    TITLE "0:"
    INDEX 01 00:01:15
  TRACK 03 AUDIO
    TITLE "4:cjc030_05031"
    INDEX 01 00:01:24
  TRACK 04 AUDIO
    TITLE "0:"
    INDEX 01 00:03:47
  TRACK 05 AUDIO
    TITLE "5:cjc030_05032"
    INDEX 01 00:03:57
  TRACK 06 AUDIO
    TITLE "0:"
    INDEX 01 00:04:74
  TRACK 07 AUDIO
    TITLE "6:cjc030_05033"
    INDEX 01 00:05:14
  TRACK 08 AUDIO
    TITLE "0:"
    INDEX 01 00:09:49
  TRACK 09 AUDIO
    TITLE "3:cjc030_05034"
    INDEX 01 00:10:23
  TRACK 10 AUDIO
    TITLE "0:"
    INDEX 01 00:11:29
  TRACK 11 AUDIO
    TITLE "4:cjc030_05035"
    INDEX 01 00:11:35
  TRACK 12 AUDIO
    TITLE "0:"
    INDEX 01 00:13:61
  TRACK 13 AUDIO
    TITLE "5:cjc030_05036"
    INDEX 01 00:13:69
  TRACK 14 AUDIO
    TITLE "0:"
    INDEX 01 00:14:72
  TRACK 15 AUDIO
    TITLE "6:cjc030_05037"
    INDEX 01 00:15:13
  TRACK 16 AUDIO
    TITLE "0:"
    INDEX 01 00:19:65
  TRACK 17 AUDIO
    TITLE "3:cjc030_05038"
    INDEX 01 00:20:37
  TRACK 18 AUDIO
    TITLE "0:"
    INDEX 01 00:21:43
  TRACK 19 AUDIO
    TITLE "4:cjc030_05039"
    INDEX 01 00:21:51
  TRACK 20 AUDIO
    TITLE "0:"
    INDEX 01 00:23:01
  TRACK 21 AUDIO
    TITLE "5:cjc030_05040"
    INDEX 01 00:23:10
  TRACK 22 AUDIO
    TITLE "0:"
    INDEX 01 00:24:14
  TRACK 23 AUDIO
    TITLE "6:cjc030_05041"
    INDEX 01 00:24:27
  TRACK 24 AUDIO
    TITLE "0:"
    INDEX 01 00:27:71
  TRACK 25 AUDIO
    TITLE "3:cjc030_05042"
    INDEX 01 00:28:45
  TRACK 26 AUDIO
    TITLE "0:"
    INDEX 01 00:29:62
  TRACK 27 AUDIO
    TITLE "4:cjc030_05043"
    INDEX 01 00:29:72
  TRACK 28 AUDIO
    TITLE "0:"
    INDEX 01 00:32:31
  TRACK 29 AUDIO
    TITLE "5:cjc030_05044"
    INDEX 01 00:32:39
  TRACK 30 AUDIO
    TITLE "0:"
    INDEX 01 00:33:60
  TRACK 31 AUDIO
    TITLE "6:cjc030_05045"
    INDEX 01 00:33:69
  TRACK 32 AUDIO
    TITLE "0:"
    INDEX 01 00:37:65
  TRACK 33 AUDIO
    TITLE "3:cjc030_05046"
    INDEX 01 00:38:37
  TRACK 34 AUDIO
    TITLE "0:"
    INDEX 01 00:39:58
  TRACK 35 AUDIO
    TITLE "4:cjc030_05047"
    INDEX 01 00:39:66
  TRACK 36 AUDIO
    TITLE "0:"
    INDEX 01 00:40:60
  TRACK 37 AUDIO
    TITLE "5:cjc030_05048"
    INDEX 01 00:40:66
  TRACK 38 AUDIO
    TITLE "0:"
    INDEX 01 00:42:12
  TRACK 39 AUDIO
    TITLE "3:cjc030_05049"
    INDEX 01 00:42:68
  TRACK 40 AUDIO
    TITLE "0:"
    INDEX 01 00:43:74
  TRACK 41 AUDIO
    TITLE "4:cjc030_05050"
    INDEX 01 00:44:09
  TRACK 42 AUDIO
    TITLE "0:"
    INDEX 01 00:45:00
  TRACK 43 AUDIO
    TITLE "5:cjc030_05051"
    INDEX 01 00:45:06
  TRACK 44 AUDIO
    TITLE "0:"
    INDEX 01 00:46:15
  TRACK 45 AUDIO
    TITLE "6:cjc030_05052"
    INDEX 01 00:46:25
  TRACK 46 AUDIO
    TITLE "0:"
    INDEX 01 00:52:12
  TRACK 47 AUDIO
    TITLE "3:cjc030_05053"
    INDEX 01 00:52:59
  TRACK 48 AUDIO
    TITLE "0:"
    INDEX 01 00:54:07
  TRACK 49 AUDIO
    TITLE "4:cjc030_05054"
    INDEX 01 00:54:15
  TRACK 50 AUDIO
    TITLE "0:"
    INDEX 01 00:55:30
  TRACK 51 AUDIO
    TITLE "5:cjc030_05055"
    INDEX 01 00:55:38
  TRACK 52 AUDIO
    TITLE "0:"
    INDEX 01 00:56:59
  TRACK 53 AUDIO
    TITLE "6:cjc030_05056"
    INDEX 01 00:56:72
  TRACK 54 AUDIO
    TITLE "0:"
    INDEX 01 00:59:06
  TRACK 55 AUDIO
    TITLE "3:cjc030_05057"
    INDEX 01 00:59:53
  TRACK 56 AUDIO
    TITLE "0:"
    INDEX 01 01:00:64
  TRACK 57 AUDIO
    TITLE "4:cjc030_05058"
    INDEX 01 01:00:72
  TRACK 58 AUDIO
    TITLE "0:"
    INDEX 01 01:01:72
  TRACK 59 AUDIO
    TITLE "5:cjc030_05059"
    INDEX 01 01:02:06
  TRACK 60 AUDIO
    TITLE "0:"
    INDEX 01 01:03:18
  TRACK 61 AUDIO
    TITLE "6:cjc030_05060"
    INDEX 01 01:03:29
  TRACK 62 AUDIO
    TITLE "0:"
    INDEX 01 01:08:09
  TRACK 63 AUDIO
    TITLE "3:cjc030_05061"
    INDEX 01 01:08:60
  TRACK 64 AUDIO
    TITLE "0:"
    INDEX 01 01:10:02
  TRACK 65 AUDIO
    TITLE "4:cjc030_05062"
    INDEX 01 01:10:12
  TRACK 66 AUDIO
    TITLE "0:"
    INDEX 01 01:11:31
  TRACK 67 AUDIO
    TITLE "5:cjc030_05063"
    INDEX 01 01:11:39
  TRACK 68 AUDIO
    TITLE "0:"
    INDEX 01 01:12:56
  TRACK 69 AUDIO
    TITLE "6:cjc030_05064"
    INDEX 01 01:12:70
  TRACK 70 AUDIO
    TITLE "0:"
    INDEX 01 01:14:63
